<?xml version="1.0" standalone="no"?>
<!DOCTYPE svg PUBLIC "-//W3C//DTD SVG 20010904//EN"
 "http://www.w3.org/TR/2001/REC-SVG-20010904/DTD/svg10.dtd">
<svg version="1.0" xmlns="http://www.w3.org/2000/svg"
 width="518.000000pt" height="481.000000pt" viewBox="0 0 518.000000 481.000000"
 preserveAspectRatio="xMidYMid meet">

<g transform="translate(0.000000,481.000000) scale(0.100000,-0.100000)"
fill="#000000" stroke="none">
<path d="M2322 4530 c-817 -86 -1492 -621 -1752 -1390 -138 -405 -137 -896 1
-1305 290 -857 1116 -1428 2014 -1392 541 22 1016 234 1397 623 292 299 469
643 550 1069 19 103 22 152 22 350 0 301 -25 453 -116 705 -196 542 -628 986
-1172 1204 -115 46 -323 103 -446 121 -129 19 -386 27 -498 15z m461 -125
c498 -75 923 -318 1234 -705 258 -322 392 -666 424 -1090 24 -326 -42 -663
-190 -965 -266 -543 -756 -923 -1356 -1051 -161 -35 -483 -45 -650 -20 -646
95 -1187 489 -1470 1070 -136 278 -195 540 -195 859 0 713 402 1369 1041 1701
200 104 389 165 616 200 123 20 418 20 546 1z"/>
<path d="M2336 4143 c-15 -74 -47 -336 -52 -427 -7 -116 11 -223 50 -296 13
-25 40 -75 59 -112 20 -38 39 -89 43 -115 8 -56 -24 -463 -38 -480 -6 -7 -99
-74 -207 -150 -108 -75 -204 -143 -213 -151 -16 -13 -11 -22 55 -119 40 -58
77 -107 84 -110 12 -5 496 329 553 382 79 73 408 329 454 352 34 17 76 27 145
34 170 17 283 70 387 181 118 125 142 255 64 335 -108 110 -385 29 -533 -155
-16 -20 -49 -78 -73 -128 -32 -68 -56 -103 -91 -134 -68 -61 -386 -252 -394
-237 -3 7 -12 88 -18 180 -16 211 -6 265 75 387 13 19 33 62 46 95 31 84 31
291 -1 500 -30 203 -28 195 -62 195 l-29 0 0 -270 0 -270 -29 0 c-28 0 -29 2
-35 63 -3 34 -8 136 -11 227 -3 91 -8 184 -11 208 -5 38 -8 42 -34 42 -27 0
-28 -1 -34 -67 -3 -38 -8 -138 -11 -223 -3 -85 -8 -176 -11 -202 -6 -45 -8
-48 -35 -48 l-29 0 0 270 0 270 -29 0 c-24 0 -30 -5 -35 -27z"/>
<path d="M3190 2215 c0 -175 5 -185 95 -185 52 0 55 1 55 25 0 23 -3 25 -50
25 l-50 0 0 75 0 75 50 0 c47 0 50 2 50 25 0 23 -3 25 -50 25 l-50 0 0 40 c0
36 -2 40 -25 40 l-25 0 0 -145z"/>
<path d="M2540 2185 l0 -155 134 0 c184 0 181 -3 171 154 -10 160 -6 156 -175
156 l-130 0 0 -155z m250 65 l0 -40 -100 0 -100 0 0 40 0 40 100 0 100 0 0
-40z m15 -130 l0 -35 -107 -3 -108 -3 0 41 0 41 108 -3 107 -3 0 -35z"/>
<path d="M1534 2104 c-170 -119 -328 -234 -351 -256 -73 -71 -125 -196 -103
-252 16 -42 47 -66 86 -66 30 0 91 38 417 267 210 146 403 281 429 300 l48 35
-41 59 c-72 106 -96 129 -138 129 -33 0 -78 -28 -347 -216z"/>
<path d="M2890 2181 c0 -84 3 -102 21 -125 19 -24 26 -26 105 -26 83 0 84 0
84 -25 0 -25 -1 -25 -80 -25 -79 0 -80 0 -80 -25 0 -25 1 -25 83 -25 126 0
127 1 127 195 l0 155 -25 0 -25 0 0 -100 0 -100 -80 0 -80 0 0 100 0 100 -25
0 c-25 0 -25 0 -25 -99z"/>
<path d="M3387 2262 c-13 -14 -17 -39 -17 -110 0 -118 4 -122 147 -122 103 0
103 0 103 25 0 24 -1 24 -102 27 -98 3 -103 4 -106 26 -3 22 -2 22 102 22
l106 0 0 59 c0 81 -15 91 -131 91 -71 0 -89 -3 -102 -18z m188 -57 c0 -18 -8
-20 -82 -23 -76 -3 -83 -1 -83 16 0 30 10 33 90 30 67 -3 75 -5 75 -23z"/>
<path d="M2547 1923 c-4 -3 -7 -73 -7 -155 l0 -148 25 0 25 0 0 118 1 117 64
-70 c65 -70 65 -70 82 -49 78 94 97 114 104 114 5 0 9 -52 9 -115 0 -108 1
-115 20 -115 19 0 20 7 20 155 l0 155 -24 0 c-20 0 -86 -64 -144 -140 -2 -3
-33 28 -69 68 -59 66 -88 83 -106 65z"/>
<path d="M2950 1841 c-5 -11 -10 -58 -10 -104 0 -114 4 -117 143 -117 100 0
107 1 107 20 0 22 2 21 -117 21 -75 0 -101 13 -89 44 4 12 25 15 106 15 l100
0 0 54 c0 79 -10 86 -130 86 -88 0 -100 -2 -110 -19z m195 -51 c0 -24 -2 -25
-78 -28 -62 -2 -78 0 -83 13 -15 37 2 46 83 43 76 -3 78 -4 78 -28z"/>
<path d="M2900 1545 c0 -29 34 -36 44 -9 8 21 -1 34 -25 34 -14 0 -19 -7 -19
-25z"/>
<path d="M3287 1563 c-4 -3 -7 -70 -7 -148 0 -169 3 -175 93 -175 50 0 57 2
57 20 0 17 -7 20 -50 20 l-50 0 0 75 0 75 50 0 c47 0 50 2 50 25 0 23 -3 25
-50 25 l-50 0 0 39 c0 26 -5 41 -16 45 -19 7 -19 7 -27 -1z"/>
<path d="M2540 1390 c0 -149 0 -150 23 -151 12 0 76 0 142 0 152 -1 149 -4
140 146 -10 159 -5 155 -170 155 l-135 0 0 -150z m248 63 l3 -43 -100 0 -101
0 0 38 c0 21 3 42 7 46 4 4 48 5 98 4 l90 -3 3 -42z m18 -107 c14 -57 8 -61
-109 -64 l-107 -3 0 39 c0 21 3 42 7 45 3 4 50 7 104 7 96 0 99 -1 105 -24z"/>
<path d="M2900 1361 c0 -119 0 -121 23 -121 22 0 22 2 20 117 -2 111 -3 118
-22 121 -20 3 -21 -1 -21 -117z"/>
<path d="M2999 1464 c-19 -23 -17 -90 3 -111 13 -12 40 -18 103 -21 82 -4 85
-5 85 -28 0 -23 -2 -24 -80 -24 -47 0 -80 4 -80 10 0 6 -9 10 -20 10 -23 0
-27 -31 -6 -49 7 -6 54 -12 104 -13 76 -2 94 1 112 17 24 22 26 71 4 103 -14
20 -23 22 -105 22 l-89 0 0 26 0 27 105 -5 c111 -6 126 0 87 35 -27 24 -203
25 -223 1z"/>
<path d="M3477 1462 c-14 -15 -17 -40 -17 -120 0 -101 0 -102 24 -102 23 0 24
2 24 83 0 45 1 88 1 95 1 8 22 12 71 12 68 0 70 1 70 25 0 25 -1 25 -78 25
-64 0 -82 -4 -95 -18z"/>
<path d="M3696 1464 c-20 -19 -23 -193 -4 -212 19 -19 202 -16 222 4 25 24 23
185 -2 207 -26 24 -193 24 -216 1z m184 -109 l0 -76 -77 3 -78 3 -3 73 -3 72
81 0 80 0 0 -75z"/>
</g>
</svg>
